<svg version="1.1" fill="currentColor" viewbox="24 24 0 0" xmlns="http://www.w3.org/2000/svg"
	xmlns:xlink="http://www.w3.org/1999/xlink"
	x="0px" y="0px" width="21.331px" height="21.452px" viewBox="0 0 21.331 21.452"
	xml:space="preserve">
<g>
	<g>
		<path fill="#fff" d="M7.501,11.532c0,0.168-0.151,0.307-0.338,0.307H4.572c-0.186,0-0.337-0.139-0.337-0.307V0.307
			C4.235,0.137,4.386,0,4.572,0h2.591C7.35,0,7.501,0.137,7.501,0.307V11.532z"/>
		<path fill="#fff" d="M0.306,7.553C0.137,7.553,0,7.401,0,7.215v-2.59c0-0.188,0.137-0.34,0.306-0.34h11.227
			c0.168,0,0.307,0.152,0.307,0.34v2.59c0,0.187-0.139,0.338-0.307,0.338H0.306L0.306,7.553z"/>
	</g>
	<path fill="#fff" d="M20.735,16.335l-8.57,3.029c-0.611,0.219-1.406,0.125-1.795-0.203l-3.67-3.092
		c-0.141-0.123-0.203-0.25-0.203-0.375v0.484c0,0.125,0.063,0.266,0.203,0.375l3.687,3.092c0.389,0.328,1.186,0.422,1.794,0.203
		l8.572-2.998c0.375-0.141,0.578-0.359,0.578-0.594v-0.5C21.331,15.992,21.11,16.212,20.735,16.335z"/>
	<path fill="#fff" d="M20.735,17.164l-8.57,2.996c-0.611,0.221-1.406,0.127-1.795-0.201l-3.67-3.092
		c-0.141-0.111-0.203-0.25-0.203-0.375v0.484c0,0.125,0.063,0.266,0.203,0.375l3.687,3.092c0.389,0.328,1.186,0.422,1.794,0.203
		l8.557-2.998c0.391-0.125,0.594-0.344,0.594-0.578v-0.5C21.331,16.804,21.11,17.023,20.735,17.164z"/>
	<g>
		<path fill="#fff" d="M10.353,17.498L9.257,16.58l1.256,1.021c0.034,0.027,0.071,0.053,0.111,0.076
			C10.522,17.628,10.431,17.568,10.353,17.498z"/>
		<path fill="#fff" d="M12.133,17.748c-0.166,0.064-0.355,0.096-0.545,0.107c0.118-0.014,0.229-0.037,0.344-0.066l2.49-0.844
			L12.133,17.748z"/>
		<g>
			<path fill="#fff" d="M21.25,14.304c0.002-0.012,0.004-0.02,0.006-0.029c0.031-0.172-0.031-0.355-0.207-0.479l-3.777-3.071
				c-0.207-0.17-0.525-0.262-0.863-0.262c-0.191,0-0.367,0.03-0.545,0.151l-8.782,2.992c-0.303,0.033-0.494,0.203-0.527,0.42
				c-0.016,0.08-0.004,0.164,0.027,0.246c-0.018-0.02-0.033-0.045-0.048-0.068v0.279c0,0.123,0.063,0.264,0.202,0.371l3.658,3.07
				c0.389,0.324,1.179,0.418,1.785,0.201l8.508-2.977c0.373-0.123,0.574-0.34,0.59-0.572v-0.313
				C21.266,14.279,21.258,14.291,21.25,14.304z M16.299,14.808c-1.203,0.779-3.225,1.189-4.512,0.918
				c-1.29-0.27-1.359-1.125-0.155-1.902c1.206-0.777,3.223-1.188,4.512-0.918C17.432,13.177,17.5,14.029,16.299,14.808z"/>
		</g>
	</g>
	<path fill="#fff" d="M20.735,17.974l-8.57,3c-0.611,0.219-1.406,0.125-1.795-0.203l-3.67-3.094
		c-0.141-0.125-0.203-0.25-0.203-0.373v0.357c0,0.127,0.063,0.268,0.203,0.377l3.687,3.092c0.389,0.326,1.186,0.422,1.794,0.201
		l8.572-2.996c0.375-0.143,0.578-0.375,0.578-0.596v-0.357C21.331,17.617,21.127,17.835,20.735,17.974z"/>
	<path fill="#fff" d="M20.735,15.554l-8.57,3c-0.611,0.217-1.406,0.125-1.795-0.205l-3.67-3.092
		c-0.141-0.125-0.203-0.248-0.203-0.373v0.484c0,0.125,0.063,0.264,0.203,0.373l3.687,3.092c0.389,0.328,1.186,0.422,1.794,0.203
		l8.572-2.998c0.357-0.123,0.578-0.359,0.578-0.576v-0.486C21.313,15.197,21.11,15.429,20.735,15.554z"/>
	<path fill="#fff" d="M21.274,14.271c0,0-0.01-0.131-0.016-0.133s-0.129,0.08-0.129,0.08l0.063,0.195"/>
	<path fill="#fff" d="M6.527,14.25c0,0,0.018-0.145,0.016-0.152c-0.002-0.012,0.112,0.393,0.112,0.393"/>
</g>
</svg>